<?xml version="1.0" standalone="no"?>
<!DOCTYPE svg PUBLIC "-//W3C//DTD SVG 20010904//EN"
 "http://www.w3.org/TR/2001/REC-SVG-20010904/DTD/svg10.dtd">
<svg version="1.0" xmlns="http://www.w3.org/2000/svg"
 width="372.000000pt" height="372.000000pt" viewBox="0 0 372.000000 372.000000"
 preserveAspectRatio="xMidYMid meet">
<metadata>
Created by potrace 1.11, written by Peter Selinger 2001-2013
</metadata>
<g transform="translate(0.000000,372.000000) scale(0.100000,-0.100000)"
fill="#000000" stroke="none">
<path d="M2335 3074 c-306 -37 -538 -87 -820 -176 -361 -115 -713 -261 -999
-415 -326 -176 -584 -363 -501 -363 9 0 50 20 93 44 112 63 334 173 512 253
151 68 496 204 554 219 l29 7 -7 -59 c-4 -32 -11 -93 -16 -134 -22 -182 -33
-722 -22 -1040 14 -383 39 -553 85 -582 27 -17 75 -8 96 18 19 24 21 40 21
170 0 79 -5 223 -11 319 -6 97 -8 179 -5 182 3 3 25 -2 50 -10 26 -9 94 -24
154 -33 l107 -17 -8 -111 c-4 -61 -8 -208 -9 -326 -2 -297 21 -400 92 -400 78
0 90 57 99 473 4 180 10 330 13 333 6 6 376 -40 1043 -131 378 -51 574 -75
727 -90 59 -6 69 -4 87 14 12 12 21 30 21 40 0 40 -32 58 -160 89 -317 78
-569 118 -1483 240 -120 16 -221 32 -224 36 -6 6 12 274 24 348 5 35 12 41
157 129 605 371 758 488 827 634 23 48 29 74 29 131 0 97 -26 146 -100 188
-54 30 -58 31 -195 33 -77 1 -194 -5 -260 -13z m355 -167 c21 -11 25 -20 23
-51 -7 -104 -142 -213 -651 -524 -103 -62 -152 -87 -148 -75 4 14 49 322 59
408 1 12 -4 20 -12 20 -29 0 -109 -195 -174 -425 l-33 -114 -165 -104 c-90
-57 -187 -121 -216 -142 l-51 -39 -6 127 c-15 295 -27 482 -36 557 -16 131
-26 117 108 158 264 81 484 135 677 166 298 46 575 63 625 38z m-1005 -1141
c-8 -64 -15 -118 -15 -120 0 -5 -148 20 -202 34 -53 14 -56 17 -30 37 39 32
255 173 259 170 2 -3 -3 -57 -12 -121z"/>
</g>
</svg>
